<svg width="256" height="299" viewBox="0 0 256 299" fill="none" xmlns="http://www.w3.org/2000/svg">
<path opacity="0.3" d="M179.948 121.512C179.967 133.879 176.761 146.037 170.647 156.787L170.17 156.652C157.158 153.088 142.632 165.206 141.391 174.871C138.762 177.5 126.41 177.563 108.211 177.5C90.0484 177.437 68.4478 180 68.4478 174.871C67.196 165.206 54.9478 156.635 46.1813 156.635C40.805 147.111 37.6858 136.48 37.0635 125.561C36.4413 114.642 38.3328 103.725 42.5923 93.6519C46.8518 83.5784 53.3659 74.6164 61.6332 67.4555C69.9005 60.2946 79.7006 55.1257 90.2795 52.3466C100.858 49.5675 111.934 49.2523 122.653 51.4253C133.373 53.5983 143.452 58.2014 152.113 64.8806C160.774 71.5597 167.787 80.1368 172.613 89.9517C177.438 99.7667 179.948 110.558 179.948 121.495V121.512Z" fill="url(#paint0_linear_7:266)"/>
<path opacity="0.2" d="M170.948 162.5C177.748 163.7 183.448 170.667 185.448 174C181.614 174 173.648 175.7 172.448 182.5C170.948 191 146.448 201.5 146.448 192C146.448 174.471 162.448 161 170.948 162.5Z" fill="url(#paint1_linear_7:266)"/>
<path opacity="0.3" d="M61.4476 171C45.4476 151.5 29.9476 160 23.9476 164.5C18.7476 167.525 19.781 171.427 20.9476 173C24.6143 171.333 30.3319 163.385 37.9478 171C46.9478 180 45.9478 191.5 44.4478 193.5C42.9478 195.5 77.4476 190.5 61.4476 171Z" fill="url(#paint2_linear_7:266)"/>
<path opacity="0.5" d="M138 104.994C138 108.857 142.316 111.989 147.64 111.989C152.965 111.989 157.281 108.857 157.281 104.994C157.281 101.132 152.965 98 147.64 98C142.316 98 138 101.132 138 104.994Z" fill="#EB5757"/>
<path opacity="0.5" d="M48 104.994C48 108.857 52.3162 111.989 57.6405 111.989C62.9648 111.989 67.281 108.857 67.281 104.994C67.281 101.132 62.9648 98 57.6405 98C52.3162 98 48 101.132 48 104.994Z" fill="#EB5757"/>
<path d="M139.016 187.65C137.287 184.681 136.602 181.22 137.07 177.817C138.406 167.41 154.046 154.362 168.055 158.2L168.569 158.345C175.152 146.77 178.603 133.678 178.583 120.362H178.595C178.595 108.586 175.893 96.9662 170.698 86.3979C165.502 75.8296 157.951 66.5942 148.626 59.4024C139.301 52.2106 128.45 47.2541 116.908 44.9143C105.367 42.5746 93.4421 42.914 82.0523 45.9064C70.6625 48.8988 60.1111 54.4644 51.21 62.1749C42.3089 69.8855 35.2954 79.5354 30.7093 90.382C26.1233 101.229 24.0868 112.983 24.7567 124.74C25.4267 136.497 28.7851 147.944 34.5735 158.2C48.5883 154.362 64.2227 167.41 65.5583 177.817C66.0117 181.12 65.3752 184.481 63.7452 187.39" stroke="#2C3863" stroke-width="9.9" stroke-miterlimit="10"/>
<path d="M173.784 95.8861C178.407 95.0944 184.825 95.0642 188.627 98.092C195.547 103.61 199.076 119.764 185.23 126.496C179.834 129.119 178.19 128.219 178.19 128.219" stroke="#2C3863" stroke-width="9.9" stroke-miterlimit="10"/>
<path d="M29.352 95.886C24.7227 95.0943 18.3107 95.058 14.5093 98.0797C7.58355 103.597 4.06022 119.752 17.8997 126.484C23.3025 129.107 24.9464 128.206 24.9464 128.206" stroke="#2C3863" stroke-width="9.9" stroke-miterlimit="10"/>
<path d="M148.166 83.7508C149.653 88.8817 139.645 89.7218 135.813 89.7218C131.982 89.7218 122.826 90.87 122.826 85.5337C122.826 80.1973 131.982 80.0523 135.813 80.0523C139.645 80.0523 147.024 79.8166 148.166 83.7508Z" fill="#2C3863"/>
<path d="M53.9971 83.7508C52.5104 88.8817 62.5184 89.7218 66.3499 89.7218C70.1815 89.7218 79.3373 90.87 79.3373 85.5337C79.3373 80.1973 70.1815 80.0523 66.3499 80.0523C62.5184 80.0523 55.1393 79.8166 53.9971 83.7508Z" fill="#2C3863"/>
<path d="M124.022 138.752C124.022 138.752 118.438 135.622 113.017 135.005C106.472 134.262 95.6303 133.797 88.5353 135.005C82.4193 136.075 78.9685 138.752 78.9685 138.752C78.9685 138.752 77.0104 99.6149 101.607 99.6149C130.447 99.6149 124.022 138.752 124.022 138.752Z" stroke="#2C3863" stroke-width="7" stroke-linecap="round" stroke-linejoin="round"/>
<path d="M196.743 177.817H186.651" stroke="#2C3863" stroke-width="11" stroke-linecap="round" stroke-linejoin="round"/>
<path d="M15.9657 177.817H6.00009" stroke="#2C3863" stroke-width="11" stroke-linecap="round" stroke-linejoin="round"/>
<path d="M137.07 177.817H65.546" stroke="#2C3863" stroke-width="11" stroke-linecap="round" stroke-linejoin="round"/>
<path d="M63.7452 187.39C60.7718 192.678 54.5471 196.038 46.5939 194.896C34.4526 193.143 29.3519 178.022 29.3519 178.022L15.9718 177.817C15.9718 177.817 20.5527 162.038 34.5674 158.2C48.5822 154.362 64.2166 167.41 65.5522 177.817C66.0074 181.12 65.373 184.48 63.7452 187.39V187.39Z" stroke="#2C3863" stroke-width="11" stroke-linecap="round" stroke-linejoin="round"/>
<path d="M186.651 177.817L173.264 178.022C173.264 178.022 168.164 193.131 156.022 194.896C148.202 196.02 142.05 192.792 139.016 187.643C137.287 184.675 136.602 181.214 137.07 177.811C138.406 167.404 154.046 154.356 168.055 158.194L168.569 158.339C182.166 162.424 186.651 177.817 186.651 177.817Z" stroke="#2C3863" stroke-width="11" stroke-linecap="round" stroke-linejoin="round"/>
<path d="M42.8952 23.1409C55.5864 33.3 75.0367 41.2291 97.5002 42.9998" stroke="#2C3863" stroke-width="11" stroke-linecap="round" stroke-linejoin="round"/>
<path d="M31.9748 37.8387C39.8313 44.1421 49.454 49.2106 62.0002 52.9999" stroke="#2C3863" stroke-width="11" stroke-linecap="round" stroke-linejoin="round"/>
<path d="M21.1509 52.9473C28.7369 58.8538 35.9913 62.6418 45 66.0001" stroke="#2C3863" stroke-width="11" stroke-linecap="round" stroke-linejoin="round"/>
<path d="M232.46 58.616H152.934C142.778 58.616 134.544 66.8496 134.544 77.0062V275.624C134.544 285.781 142.778 294.014 152.934 294.014H232.46C242.617 294.014 250.85 285.781 250.85 275.624V77.0062C250.85 66.8496 242.617 58.616 232.46 58.616Z" fill="white" stroke="#2C3863" stroke-width="9.9" stroke-miterlimit="10"/>
<rect x="179" y="255" width="25" height="25" rx="8" fill="#2C3863"/>
<path d="M194.719 199.193C215.362 199.193 232.097 182.458 232.097 161.814C232.097 141.17 215.362 124.435 194.719 124.435C174.075 124.435 157.34 141.17 157.34 161.814C157.34 182.458 174.075 199.193 194.719 199.193Z" fill="#D7EDF9" stroke="#2C3863" stroke-width="5" stroke-miterlimit="10"/>
<path d="M209.453 160.676C208.251 160.273 207.99 159.395 207.619 157.515C207.464 156.737 207.619 154.8 206.271 151.883C204.923 148.966 201.633 148.021 201.633 148.021C199.932 147.459 198.166 147.117 196.378 147.001C196.298 146.997 196.219 147.01 196.145 147.041C196.072 147.071 196.006 147.118 195.953 147.177C195.9 147.236 195.86 147.306 195.837 147.383C195.815 147.459 195.809 147.539 195.821 147.618C195.995 148.65 197.771 148.697 199.522 149.253C202.712 150.266 203.513 152.093 203.846 152.816C204.707 154.709 204.516 156.811 203.801 158.579C202.854 160.936 201.43 162.32 200.365 163.984C198.267 167.262 198.212 170.028 198.916 172.61C199.693 175.459 202.477 176.145 204.028 175.94C208.166 175.393 209.576 173.309 209.734 173.182C209.891 173.055 210.213 173.114 211.186 172.48C212.159 171.846 212.229 170.676 211.875 170.134C211.521 169.593 211.523 169.593 211.388 169.129C211.329 168.923 211.678 168.292 211.678 168.292C211.678 168.292 211.808 167.772 211.678 167.535C211.529 167.333 211.343 167.161 211.129 167.03L211.398 166.717C211.666 166.405 211.871 165.922 211.837 165.665C211.803 165.407 211.886 165.239 211.377 164.79C211.05 164.481 210.81 164.091 210.68 163.66C210.68 163.66 211.369 162.666 211.248 161.998C211.059 160.994 210.654 161.081 209.453 160.676Z" fill="#2C3863"/>
<path d="M185.751 165.992C185.417 166.001 185.088 166.08 184.787 166.225C184.476 166.369 184.198 166.576 183.969 166.831L178.349 154.977C178.293 154.86 178.262 154.733 178.255 154.604C178.249 154.475 178.269 154.346 178.312 154.224C178.356 154.103 178.424 153.991 178.511 153.896C178.598 153.8 178.703 153.723 178.82 153.668C178.95 153.604 179.093 153.572 179.238 153.574C179.425 153.574 179.608 153.628 179.766 153.728C179.923 153.829 180.049 153.972 180.128 154.142L185.751 165.992Z" fill="#2C3863"/>
<path d="M192.462 171.96C192.397 172.143 192.278 172.303 192.122 172.42C191.966 172.536 191.779 172.603 191.584 172.612C191.389 172.622 191.196 172.573 191.03 172.472C190.863 172.371 190.73 172.223 190.648 172.047L180.76 151.183C180.704 151.066 180.671 150.938 180.664 150.808C180.657 150.678 180.677 150.548 180.721 150.426C180.762 150.302 180.828 150.187 180.915 150.09C181.002 149.992 181.108 149.913 181.226 149.858C181.356 149.795 181.5 149.763 181.644 149.765C181.834 149.764 182.019 149.817 182.179 149.919C182.338 150.021 182.465 150.166 182.544 150.339L192.422 171.202C192.533 171.44 192.547 171.712 192.462 171.96Z" fill="#2C3863"/>
<path d="M192.66 162.763C192.326 162.771 191.998 162.851 191.697 162.996C191.382 163.142 191.101 163.352 190.873 163.615L186.089 153.502C186.032 153.384 185.999 153.257 185.991 153.127C185.984 152.996 186.002 152.866 186.045 152.742C186.088 152.619 186.155 152.506 186.243 152.409C186.33 152.312 186.435 152.233 186.553 152.177C186.686 152.113 186.832 152.081 186.979 152.084C187.092 152.085 187.204 152.103 187.312 152.137C187.556 152.228 187.755 152.409 187.869 152.642L192.66 162.763Z" fill="#2C3863"/>
<path d="M197.238 165.786C196.999 165.899 196.726 165.913 196.478 165.825C196.229 165.736 196.026 165.553 195.913 165.315L189.003 150.738C188.946 150.621 188.913 150.493 188.908 150.363C188.902 150.233 188.924 150.103 188.971 149.981C189.012 149.857 189.077 149.743 189.164 149.645C189.25 149.547 189.356 149.468 189.474 149.413C189.606 149.353 189.748 149.322 189.893 149.32C190.006 149.32 190.119 149.341 190.226 149.381C190.349 149.422 190.464 149.488 190.561 149.575C190.659 149.661 190.738 149.767 190.794 149.884L197.703 164.471C197.759 164.588 197.792 164.714 197.798 164.844C197.805 164.973 197.787 165.103 197.743 165.225C197.7 165.347 197.633 165.46 197.546 165.556C197.46 165.652 197.355 165.731 197.238 165.786Z" fill="#2C3863"/>
<path d="M197.816 160.372L194.169 152.775C194.055 152.539 194.039 152.266 194.125 152.018C194.211 151.77 194.391 151.566 194.627 151.45C194.761 151.39 194.905 151.358 195.051 151.357C195.239 151.357 195.422 151.411 195.58 151.511C195.738 151.612 195.864 151.755 195.943 151.925L199.583 159.531C199.642 159.648 199.677 159.776 199.686 159.906C199.694 160.037 199.677 160.168 199.635 160.292C199.593 160.416 199.526 160.53 199.439 160.628C199.352 160.725 199.246 160.805 199.128 160.861C199.009 160.917 198.881 160.949 198.75 160.955C198.62 160.961 198.489 160.941 198.366 160.896C198.243 160.851 198.131 160.781 198.035 160.692C197.939 160.603 197.862 160.495 197.809 160.376L197.816 160.372Z" fill="#2C3863"/>
<path d="M199.922 155.899L199.014 153.974C198.901 153.736 198.887 153.464 198.974 153.216C199.017 153.094 199.085 152.981 199.173 152.885C199.262 152.79 199.368 152.713 199.487 152.66C199.617 152.594 199.76 152.559 199.905 152.559C200.092 152.561 200.275 152.615 200.432 152.715C200.589 152.816 200.715 152.959 200.795 153.127L201.706 155.049C201.818 155.285 201.833 155.557 201.745 155.804C201.658 156.051 201.476 156.253 201.239 156.365C201.003 156.478 200.731 156.492 200.484 156.405C200.237 156.317 200.035 156.135 199.922 155.899Z" fill="#2C3863"/>
<path d="M180.985 167.17C180.748 167.282 180.476 167.296 180.228 167.21C179.985 167.119 179.785 166.938 179.67 166.705L178.095 163.369C178.039 163.252 178.007 163.125 178.001 162.996C177.995 162.866 178.014 162.737 178.058 162.615C178.102 162.493 178.17 162.382 178.258 162.286C178.345 162.191 178.451 162.113 178.568 162.059C178.695 161.994 178.836 161.959 178.979 161.957C179.167 161.958 179.35 162.011 179.509 162.112C179.668 162.212 179.795 162.355 179.876 162.525L181.451 165.86C181.508 165.977 181.541 166.105 181.548 166.235C181.554 166.365 181.535 166.495 181.491 166.617C181.401 166.86 181.219 167.059 180.985 167.17Z" fill="#2C3863"/>
<path d="M196.312 172.022C196.405 171.223 196.267 170.413 195.913 169.69L195.911 169.685L195.259 168.295L194.555 166.782L192.148 161.726C192.046 161.577 191.903 161.46 191.736 161.39L191.728 161.387C191.604 161.331 191.47 161.302 191.335 161.302L191.333 161.302C191.193 161.3 191.055 161.33 190.929 161.39C190.695 161.501 190.514 161.7 190.426 161.943C190.337 162.186 190.347 162.454 190.454 162.689L192.382 166.754L192.774 167.603L192.774 167.604L194.062 170.357C194.287 170.826 194.391 171.343 194.366 171.862L194.365 171.868C194.332 172.358 194.171 172.831 193.899 173.241L193.895 173.247C193.853 173.307 193.808 173.366 193.762 173.422C193.484 173.761 193.131 174.032 192.73 174.213C192.345 174.394 191.926 174.49 191.501 174.495L191.495 174.495C191.411 174.494 191.328 174.489 191.245 174.48C190.751 174.432 190.28 174.25 189.883 173.954C189.463 173.643 189.128 173.232 188.909 172.758L185.655 165.796L185.326 165.088C185.307 165.06 185.293 165.032 185.283 165.006C185.185 164.829 185.031 164.691 184.846 164.612L184.839 164.609C184.716 164.554 184.583 164.525 184.448 164.524C184.291 164.525 184.137 164.564 183.998 164.638C183.859 164.712 183.74 164.818 183.651 164.948C183.561 165.078 183.505 165.228 183.486 165.384C183.467 165.54 183.486 165.699 183.541 165.847L183.589 165.974L183.587 165.979L183.889 166.633L183.89 166.635L187.222 173.751C187.55 174.487 188.079 175.115 188.747 175.565C189.402 176 190.162 176.249 190.947 176.287H191.215C191.987 176.278 192.748 176.098 193.442 175.761L193.452 175.756C194.241 175.406 194.929 174.862 195.452 174.175C195.927 173.549 196.225 172.806 196.312 172.024L196.312 172.022Z" fill="#2C3863"/>
<path d="M152.648 50.26L152.726 50.4173C152.727 50.4253 152.728 50.432 152.728 50.4376C152.729 50.4643 152.726 50.4921 152.713 50.5253C152.684 50.6018 152.605 50.7061 152.476 50.7811C152.384 50.8347 152.318 50.8445 152.289 50.8461C152.277 50.8316 152.259 50.8048 152.236 50.7596L152.236 50.7584C151.201 48.6689 151.631 46.9813 152.655 45.8591C153.738 44.671 155.643 43.9567 157.779 44.2994C157.904 44.3195 158.049 44.3445 158.205 44.3714C158.54 44.4294 158.926 44.4961 159.271 44.5407C159.795 44.6083 160.429 44.6574 161.051 44.559C161.697 44.4567 162.429 44.1773 162.982 43.5097C163.523 42.8572 163.729 42.0314 163.747 41.1693L163.747 41.1658C163.761 40.3827 163.668 39.6275 163.583 38.9776C163.576 38.9287 163.57 38.8804 163.564 38.8326C163.483 38.2141 163.414 37.6929 163.402 37.1755L163.402 37.1684C163.353 35.4139 163.823 34.1198 164.917 33.4879C165.635 33.0759 166.345 33.0358 167.178 33.2329C167.997 33.4269 168.816 33.8167 169.786 34.2789C169.892 34.329 169.999 34.3801 170.108 34.4318L170.11 34.4329C170.196 34.4735 170.314 34.5306 170.435 34.5899C170.6 34.6701 170.773 34.7543 170.888 34.8069C171.145 34.9248 171.46 35.056 171.819 35.1334C172.642 35.3108 173.389 35.1439 174.178 34.7735C175.244 34.2767 175.926 33.4721 176.196 32.4536C176.439 31.5385 176.308 30.5986 176.135 29.8373L176.135 29.8367C175.952 29.0301 175.598 28.26 175.324 27.6626C175.272 27.5511 175.224 27.4456 175.18 27.3471C174.865 26.6432 174.692 26.1406 174.679 25.6462L174.679 25.6443C174.638 24.1296 175.803 22.8576 177.622 22.1031C177.944 21.9694 178.477 21.8579 179.273 21.7367C179.465 21.7075 179.672 21.6777 179.889 21.6465C180.487 21.5605 181.157 21.4641 181.784 21.3397C182.643 21.1695 183.596 20.9171 184.411 20.4617C185.256 19.9896 186.054 19.2384 186.356 18.0714L186.357 18.0687C186.38 17.9777 186.407 17.9438 186.411 17.9385C186.416 17.9331 186.418 17.9307 186.426 17.9267C186.453 17.9142 186.547 17.8886 186.689 17.9278C186.831 17.9669 186.912 18.0408 186.941 18.0828C186.952 18.0995 186.958 18.1132 186.96 18.1299C186.963 18.1461 186.969 18.1949 186.945 18.2871C186.534 19.8758 185.342 20.8699 183.448 21.4613L183.447 21.4616C182.944 21.6191 182.271 21.7166 181.399 21.8377L181.351 21.8444C180.554 21.9549 179.604 22.0869 178.758 22.3356C177.917 22.5825 176.899 23.0203 176.245 23.9413C175.531 24.9466 175.491 26.1691 175.88 27.4323L175.881 27.4365C175.946 27.6455 176.01 27.848 176.072 28.0446C176.833 30.4591 177.313 31.9821 176.377 33.7709L176.367 33.7899L176.358 33.8092C176.014 34.5148 175.46 35.0969 174.773 35.4756C174.097 35.8479 173.324 36.0058 172.556 35.9288C171.528 35.7517 170.536 35.4024 169.623 34.8955L169.582 34.8726L169.539 34.8523C169.459 34.814 169.331 34.7506 169.186 34.6785C168.947 34.5596 168.661 34.4172 168.461 34.3257C168.078 34.15 167.569 33.9409 167.03 33.8638C166.464 33.7828 165.7 33.8281 165.035 34.3745C164.409 34.8881 164.135 35.6332 164.014 36.3403C163.8 37.5905 163.979 38.8297 164.12 39.8084C164.132 39.8915 164.144 39.9728 164.155 40.0521C164.311 41.156 164.389 41.977 164.19 42.7553L164.187 42.767L164.184 42.7789C164.027 43.4374 163.674 44.0326 163.17 44.4853C162.667 44.938 162.038 45.2268 161.367 45.3133L161.356 45.3146L161.346 45.3161C160.85 45.387 160.324 45.3582 159.709 45.2684C159.401 45.2234 159.088 45.1658 158.746 45.102L158.68 45.0897C158.364 45.0309 158.023 44.9671 157.678 44.9137L157.674 44.9131C156.442 44.7257 154.857 44.9041 153.686 45.6866C153.067 46.0998 152.501 46.7303 152.275 47.6113C152.05 48.4906 152.221 49.3985 152.648 50.26ZM183.895 22.8931C186.082 22.2102 187.811 20.929 188.397 18.6627C188.983 16.3964 185.484 15.4355 184.904 17.6958C184.444 19.4759 181.925 19.8381 179.714 20.156C178.675 20.3054 177.704 20.445 177.047 20.7175C174.993 21.5696 173.113 23.2497 173.18 25.6852C173.204 26.6356 173.591 27.4806 173.977 28.3266C174.252 28.9277 174.527 29.5293 174.672 30.1694L183.895 22.8931Z" fill="#2C3863" stroke="#2C3863" stroke-width="3"/>
<path d="M147.533 34.9917L147.5 35.0081L147.467 35.0261C147.12 35.2172 146.562 35.3619 145.724 35.5212C145.596 35.5455 145.46 35.5703 145.319 35.5962C144.646 35.7191 143.847 35.8652 143.159 36.0897C142.339 36.3571 141.265 36.8578 140.716 37.9717C140.298 38.82 140.313 39.7522 140.584 40.7011L140.51 40.7753L140.937 41.7208C140.974 41.8019 140.981 41.8582 140.982 41.8933C140.983 41.9301 140.976 41.9688 140.959 42.012C140.92 42.1081 140.83 42.2191 140.703 42.2935C140.643 42.3281 140.598 42.343 140.568 42.3494C140.559 42.3347 140.548 42.3148 140.536 42.2886C139.551 40.147 139.138 38.3618 140.054 36.9833L140.054 36.9832C140.479 36.3437 141.058 35.9693 141.838 35.7076C142.537 35.4734 143.288 35.359 144.181 35.2231C144.37 35.1943 144.566 35.1645 144.768 35.1325L144.769 35.1324C145.854 34.9605 146.92 34.6588 147.587 33.9417C147.973 33.5255 148.184 33.0144 148.208 32.4692C148.23 31.9694 148.092 31.5303 147.95 31.2024C147.701 30.6268 147.271 30.0375 146.944 29.5892C146.921 29.5572 146.898 29.5258 146.876 29.4952C146.49 28.9643 146.18 28.5255 145.978 28.1035L145.96 28.0642L145.939 28.0261C145.681 27.5587 145.562 27.0277 145.595 26.4951C145.627 25.9695 145.806 25.4637 146.112 25.0351C146.92 23.9972 148.342 23.6536 150.245 23.5765L150.247 23.5764C150.408 23.5697 150.589 23.5742 150.836 23.5803C150.942 23.5829 151.061 23.5858 151.196 23.5883C151.592 23.5956 152.089 23.5964 152.578 23.5351C153.052 23.4758 153.663 23.3429 154.207 22.9846C154.812 22.5859 155.251 21.9604 155.367 21.1419C155.447 20.6188 155.347 20.1414 155.229 19.7831C155.108 19.4133 154.935 19.0723 154.774 18.7906C154.612 18.5059 154.436 18.2374 154.294 18.0228C154.279 18.0008 154.265 17.9796 154.251 17.9591C154.119 17.7593 154.033 17.6297 153.973 17.5258L153.973 17.5258L153.97 17.5203C153.045 15.9347 152.448 14.8324 152.623 13.6305C152.643 13.5027 152.76 13.2243 153.156 12.7239C153.339 12.4928 153.548 12.254 153.784 11.9897C153.82 11.9492 153.857 11.9079 153.895 11.8659C154.092 11.6445 154.308 11.4036 154.508 11.1654C154.95 10.6391 155.528 9.89126 155.74 9.02052C155.856 8.54312 155.87 8.00502 155.685 7.45336C155.503 6.90946 155.165 6.46024 154.75 6.09362C154.714 6.06102 154.693 6.03594 154.681 6.02063C154.678 6.0162 154.675 6.01243 154.673 6.00935C154.68 5.98378 154.705 5.91812 154.786 5.83712C154.891 5.73302 155.011 5.68418 155.092 5.67577C155.128 5.6721 155.156 5.67551 155.183 5.68406C155.209 5.69224 155.258 5.71293 155.327 5.77342L155.335 5.78131L155.345 5.78906C155.918 6.27889 156.335 6.92667 156.543 7.65167C156.747 8.36383 156.741 9.11955 156.526 9.82786C156.282 10.4588 155.882 11.0182 155.365 11.4542L155.323 11.4894L155.284 11.5275C155.147 11.6605 155.017 11.7817 154.886 11.9034L154.863 11.925C154.744 12.0359 154.616 12.1551 154.498 12.271C154.259 12.5055 153.943 12.8366 153.724 13.2693C153.179 14.3454 153.512 15.3896 153.988 16.3109C154.076 16.4815 154.164 16.6509 154.251 16.8191C155.007 18.2763 155.716 19.6422 155.918 20.8929C156.022 21.5386 155.964 22.0262 155.779 22.4126C155.601 22.7837 155.228 23.2278 154.387 23.6509C153.563 24.0117 152.674 24.198 151.774 24.1977L151.739 24.1977L151.703 24.1994C151.574 24.2055 151.36 24.1957 150.989 24.1751L150.963 24.1737C150.634 24.1554 150.223 24.1326 149.812 24.1343C149.397 24.136 148.907 24.1619 148.438 24.2701C147.99 24.3733 147.367 24.5948 146.901 25.1378L146.898 25.1412C146.085 26.0942 146.418 27.2597 146.615 27.7907C146.854 28.4343 147.259 29.1085 147.62 29.6782C147.777 29.9258 147.925 30.1526 148.065 30.368C148.285 30.7052 148.487 31.0144 148.676 31.3311C148.822 31.5748 148.931 31.7764 149.006 31.94C149.069 32.0794 149.088 32.1492 149.092 32.1631C149.155 32.7325 149.042 33.3078 148.768 33.8114C148.489 34.3237 148.058 34.7363 147.533 34.9917Z" fill="#2C3863" stroke="#2C3863" stroke-width="3"/>
<path d="M130.93 27.6475L130.931 27.6449C131.408 26.4757 131.165 25.438 130.601 24.0134C130.53 23.8339 130.45 23.6429 130.366 23.4415C129.846 22.1948 129.16 20.5492 129.295 18.7737C129.359 17.9339 129.654 17.2116 130.195 16.6482C130.701 16.1205 131.318 15.8439 131.815 15.6715C132.155 15.5533 132.558 15.4487 132.886 15.3636C133.003 15.3331 133.111 15.305 133.203 15.2798C133.619 15.1657 133.911 15.0616 134.135 14.9329L134.144 14.9279L134.153 14.9229C134.894 14.5101 135.452 13.8332 135.716 13.0278C135.979 11.9336 135.909 10.7854 135.514 9.73083L135.503 9.70176L135.494 9.67227C135.359 9.26127 135.139 8.81795 134.846 8.29843C134.747 8.12325 134.62 7.90562 134.484 7.67373C134.281 7.32879 134.061 6.95229 133.889 6.63704C133.256 5.47937 132.571 3.9528 132.879 2.19576L130.93 27.6475ZM130.93 27.6475C130.606 28.4451 130.195 28.6874 129.129 29.3158C129.014 29.3835 128.892 29.4555 128.761 29.5333C128.581 29.6404 128.421 29.7242 128.232 29.8229C128.144 29.8692 128.049 29.9187 127.943 29.9755C127.65 30.1323 127.279 30.3415 126.936 30.6305C126.573 30.9359 126.239 31.3311 126.007 31.8591C125.78 32.3739 125.684 32.938 125.683 33.5433C125.672 34.4874 125.98 35.3367 126.296 36.007C126.512 36.4661 126.792 36.9553 127.019 37.3504C127.035 37.379 127.051 37.4072 127.067 37.4348V37.4393L127.248 37.7736C127.291 37.8527 127.297 37.8995 127.299 37.9167C127.3 37.9348 127.298 37.9522 127.29 37.9748C127.27 38.0296 127.206 38.1242 127.08 38.1975C126.953 38.2715 126.862 38.2679 126.842 38.264C126.838 38.2631 126.838 38.2631 126.834 38.2605C126.831 38.2578 126.797 38.2325 126.751 38.1498C125.985 36.7536 125.336 35.3293 125.106 33.9718C124.885 32.6646 125.062 31.4923 125.877 30.4302L125.877 30.4302L125.884 30.4215C126.056 30.1939 126.317 29.9764 126.716 29.7302C126.914 29.6081 127.126 29.4904 127.365 29.3599C127.399 29.3414 127.434 29.3225 127.469 29.3032C127.672 29.1927 127.898 29.07 128.114 28.9435C128.613 28.6517 129.225 28.2499 129.699 27.6535C130.212 27.0082 130.508 26.2087 130.484 25.2491L130.483 25.2424C130.446 23.9789 129.927 22.7956 129.53 21.902C129.508 21.8526 129.486 21.8038 129.464 21.7557C129.051 20.8275 128.75 20.1522 128.656 19.4997L128.65 19.462L128.643 19.4247C128.543 18.9176 128.545 18.3956 128.649 17.8894C128.751 17.3928 128.949 16.9211 129.232 16.5007C129.572 16.0522 129.932 15.8323 130.437 15.6295C130.649 15.5443 130.854 15.4741 131.104 15.3887C131.205 15.3543 131.313 15.3173 131.431 15.276C131.817 15.1415 132.263 14.9761 132.733 14.7428L132.734 14.7422C133.815 14.205 134.603 13.4319 134.939 12.3895C135.26 11.3948 135.078 10.4213 134.813 9.64898C134.546 8.87363 134.131 8.1211 133.773 7.49781C133.694 7.36035 133.619 7.23002 133.547 7.10578C133.264 6.61775 133.035 6.22357 132.87 5.85922L132.863 5.84328L132.855 5.8275C132.248 4.56993 132.064 3.14993 132.33 1.77916L132.333 1.76659M130.93 27.6475L132.333 1.76659M132.333 1.76659L132.335 1.75397M132.333 1.76659L132.335 1.75397M132.335 1.75397C132.34 1.72374 132.346 1.70081 132.351 1.68402M132.335 1.75397L132.351 1.68402M132.351 1.68402C132.383 1.68181 132.434 1.68349 132.508 1.70379C132.652 1.74389 132.768 1.8288 132.828 1.91086C132.855 1.94763 132.871 1.98251 132.88 2.01745C132.888 2.05081 132.895 2.1069 132.879 2.19541L132.351 1.68402Z" fill="#2C3863" stroke="#2C3863" stroke-width="3"/>
<defs>
<linearGradient id="paint0_linear_7:266" x1="108.448" y1="210.107" x2="108.448" y2="50" gradientUnits="userSpaceOnUse">
<stop stop-color="#ED4D5B"/>
<stop offset="1" stop-color="#F9923B"/>
</linearGradient>
<linearGradient id="paint1_linear_7:266" x1="165.948" y1="204.102" x2="165.948" y2="162.386" gradientUnits="userSpaceOnUse">
<stop stop-color="#ED4D5B"/>
<stop offset="1" stop-color="#F9923B"/>
</linearGradient>
<linearGradient id="paint2_linear_7:266" x1="42.8459" y1="202.702" x2="42.8459" y2="158.735" gradientUnits="userSpaceOnUse">
<stop stop-color="#ED4D5B"/>
<stop offset="1" stop-color="#F9923B"/>
</linearGradient>
</defs>
</svg>
