<svg width="229" height="183" viewBox="0 0 229 183" fill="none" xmlns="http://www.w3.org/2000/svg">
<g filter="url(#filter0_i_1:253)">
<path d="M177.932 57.3469C172.892 55.6562 171.796 51.9729 170.24 44.0905C169.59 40.828 170.24 32.7074 164.589 20.475C158.937 8.24252 145.141 4.28146 145.141 4.28146C138.006 1.92675 130.602 0.489016 123.105 0.00288685C122.771 -0.0140256 122.439 0.0435311 122.13 0.171374C121.822 0.299217 121.546 0.494134 121.323 0.741959C121.099 0.989785 120.934 1.28429 120.838 1.60408C120.743 1.92386 120.72 2.26089 120.771 2.59067C121.501 6.91688 128.947 7.11533 136.29 9.4491C149.665 13.6959 153.023 21.3561 154.42 24.3884C158.032 32.3264 157.23 41.1376 154.23 48.5516C150.261 58.4344 144.291 64.2371 139.822 71.2146C131.027 84.9632 130.797 96.5606 133.75 107.388C137.004 119.335 148.681 122.208 155.182 121.351C172.535 119.057 178.448 110.317 179.107 109.785C179.766 109.253 181.116 109.5 185.196 106.84C189.276 104.181 189.57 99.2754 188.085 97.0051C186.601 94.7349 186.609 94.7349 186.045 92.7901C185.799 91.9248 187.26 89.2815 187.26 89.2815C187.26 89.2815 187.807 87.0985 187.26 86.1063C186.637 85.2571 185.855 84.5372 184.958 83.9868L186.085 82.6771C187.212 81.3673 188.069 79.3431 187.926 78.2635C187.783 77.184 188.133 76.4775 185.997 74.5962C184.626 73.2991 183.619 71.6651 183.076 69.8572C183.076 69.8572 185.966 65.6898 185.458 62.8877C184.664 58.6805 182.965 59.0457 177.932 57.3469Z" fill="url(#paint0_linear_1:253)"/>
</g>
<path d="M78.5415 79.6368C77.1406 79.6712 75.7631 80.0041 74.501 80.6132C73.197 81.2177 72.0301 82.082 71.0718 83.1534L47.5039 33.4456C47.2721 32.9559 47.1393 32.4253 47.1132 31.8841C47.0871 31.3429 47.1683 30.8019 47.352 30.2922C47.5356 29.7825 47.8182 29.3141 48.1835 28.9139C48.5488 28.5138 48.9896 28.1897 49.4805 27.9605C50.0254 27.6907 50.6268 27.5546 51.2348 27.5636C52.0186 27.5654 52.7857 27.7902 53.4464 28.212C54.1071 28.6337 54.634 29.2348 54.9656 29.945L78.5415 79.6368Z" fill="#333E63"/>
<path d="M106.681 104.657C106.409 105.427 105.914 106.099 105.258 106.586C104.603 107.074 103.817 107.355 103.001 107.394C102.186 107.433 101.377 107.229 100.678 106.806C99.9785 106.384 99.4211 105.763 99.0764 105.022L57.6163 17.5378C57.3787 17.0462 57.2415 16.5122 57.2129 15.967C57.1843 15.4218 57.2647 14.8763 57.4496 14.3626C57.6233 13.8429 57.9007 13.3638 58.265 12.9545C58.6293 12.5452 59.073 12.214 59.569 11.9812C60.1158 11.7175 60.7163 11.5844 61.3233 11.5922C62.1169 11.5866 62.8951 11.8106 63.5642 12.2374C64.2332 12.6642 64.7645 13.2755 65.0939 13.9975L106.514 101.482C106.981 102.479 107.04 103.617 106.681 104.657Z" fill="#333E63"/>
<path d="M107.514 66.0945C106.114 66.1308 104.737 66.4636 103.474 67.0709C102.153 67.6828 100.976 68.5675 100.021 69.6666L79.9616 27.2619C79.7218 26.7698 79.5819 26.2351 79.55 25.6886C79.5181 25.1422 79.5948 24.5948 79.7756 24.0781C79.9564 23.5615 80.2378 23.0858 80.6036 22.6785C80.9693 22.2712 81.4121 21.9404 81.9064 21.7053C82.4634 21.4384 83.0749 21.3052 83.6924 21.3163C84.1664 21.3227 84.6369 21.3976 85.0895 21.5386C86.1105 21.9195 86.9461 22.6783 87.4233 23.658L107.514 66.0945Z" fill="#333E63"/>
<path d="M126.708 78.7715C125.709 79.2449 124.563 79.3026 123.522 78.9321C122.48 78.5615 121.628 77.793 121.152 76.795L92.1782 15.6724C91.9381 15.181 91.8023 14.6453 91.779 14.0989C91.7558 13.5525 91.8458 13.0072 92.0432 12.4972C92.2148 11.9776 92.4905 11.4984 92.8536 11.0889C93.2166 10.6795 93.6594 10.3484 94.1547 10.1158C94.706 9.86527 95.3035 9.73278 95.909 9.72687C96.3862 9.72687 96.8595 9.81292 97.3061 9.98088C97.8249 10.1541 98.3033 10.4305 98.7126 10.7933C99.1218 11.1562 99.4534 11.5981 99.6875 12.0924L128.661 73.2546C128.896 73.745 129.031 74.2768 129.06 74.8196C129.088 75.3624 129.01 75.9055 128.828 76.4179C128.647 76.9302 128.366 77.4018 128.003 77.8057C127.639 78.2096 127.199 78.5378 126.708 78.7715Z" fill="#333E63"/>
<path d="M129.137 56.0688L113.844 24.2149C113.364 23.2229 113.297 22.0814 113.657 21.0401C114.017 19.9988 114.775 19.1425 115.765 18.6583C116.324 18.4063 116.929 18.2738 117.543 18.2693C118.328 18.2686 119.097 18.4924 119.76 18.9143C120.422 19.3362 120.95 19.9387 121.281 20.6507L136.543 52.5443C136.79 53.0344 136.937 53.569 136.975 54.1166C137.012 54.6643 136.94 55.2139 136.762 55.7332C136.585 56.2526 136.305 56.7312 135.94 57.1409C135.574 57.5506 135.131 57.8832 134.635 58.1191C134.14 58.355 133.602 58.4895 133.053 58.5147C132.505 58.5398 131.957 58.4552 131.442 58.2656C130.927 58.0761 130.455 57.7855 130.054 57.411C129.652 57.0365 129.33 56.5855 129.105 56.0846L129.137 56.0688Z" fill="#333E63"/>
<path d="M137.965 37.3115L134.154 29.2385C133.682 28.2435 133.622 27.1023 133.988 26.0633C134.169 25.5488 134.454 25.0766 134.824 24.6754C135.193 24.2742 135.641 23.9524 136.139 23.7296C136.682 23.4526 137.283 23.3085 137.893 23.3088C138.676 23.3144 139.442 23.5408 140.102 23.9621C140.762 24.3834 141.289 24.9824 141.624 25.6902L145.442 33.7473C145.915 34.7389 145.974 35.8776 145.607 36.913C145.24 37.9483 144.477 38.7955 143.485 39.2682C142.494 39.7408 141.355 39.8002 140.32 39.4332C139.284 39.0663 138.437 38.303 137.965 37.3115Z" fill="#333E63"/>
<path d="M65.0903 98.3554C64.094 98.8225 62.9548 98.8823 61.9151 98.5221C60.8936 98.1387 60.0564 97.3809 59.5734 96.4026L41.3971 59.1444C41.1643 58.6538 41.031 58.122 41.0048 57.5796C40.9786 57.0372 41.0601 56.495 41.2446 55.9843C41.4291 55.4736 41.713 55.0045 42.0798 54.604C42.4465 54.2036 42.889 53.8798 43.3816 53.6513C43.9161 53.3802 44.505 53.2337 45.1042 53.2227C45.8915 53.2269 46.6618 53.4525 47.3271 53.8736C47.9924 54.2946 48.5259 54.8943 48.8668 55.6041L67.043 92.8623C67.281 93.3537 67.4184 93.8878 67.447 94.433C67.4756 94.9783 67.395 95.5238 67.2097 96.0375C66.8311 97.0561 66.071 97.8873 65.0903 98.3554Z" fill="#333E63"/>
<path d="M122.828 104.92C123.22 101.568 122.639 98.1731 121.155 95.1416L121.145 95.1207L118.412 89.2905L115.462 82.9461L105.369 61.7478C104.942 61.1208 104.342 60.6312 103.641 60.3394L103.605 60.3238C103.087 60.0907 102.526 59.9693 101.959 59.9674L101.949 59.9673C101.365 59.9611 100.787 60.0875 100.258 60.3371C99.2766 60.8026 98.5178 61.6356 98.1455 62.6562C97.774 63.6748 97.8175 64.7985 98.2664 65.7852L106.351 82.8307L107.991 86.3881L107.994 86.3949L113.394 97.9393C114.336 99.9035 114.774 102.072 114.666 104.248L114.665 104.273C114.525 106.329 113.851 108.313 112.71 110.029L112.692 110.056C112.515 110.308 112.329 110.553 112.135 110.79C110.969 112.21 109.488 113.346 107.806 114.106C106.194 114.867 104.437 115.269 102.654 115.287L102.629 115.287C102.279 115.284 101.929 115.263 101.58 115.224C99.5103 115.026 97.5345 114.263 95.8687 113.018C94.1103 111.717 92.7058 109.991 91.7871 108.006L78.1421 78.8123L76.7631 75.8426C76.6823 75.728 76.6229 75.6107 76.5804 75.4984C76.1716 74.7595 75.5267 74.1774 74.7473 73.8466L74.7217 73.8355C74.2056 73.6037 73.6468 73.4821 73.0811 73.4784C72.4232 73.4845 71.7764 73.6487 71.1952 73.9572C70.6117 74.267 70.1115 74.7131 69.7374 75.2577C69.3632 75.8022 69.1261 76.429 69.0462 77.0849C68.9663 77.7407 69.0459 78.4061 69.2783 79.0246L69.4793 79.5594L69.47 79.5793L70.7369 82.3231L70.7403 82.3305L84.7111 112.169C86.0885 115.254 88.3047 117.89 91.1075 119.777C93.8536 121.598 97.0405 122.644 100.331 122.803H101.455C104.691 122.765 107.883 122.012 110.795 120.598L110.837 120.577C114.144 119.108 117.028 116.828 119.221 113.949C121.216 111.323 122.462 108.205 122.827 104.928L122.828 104.92Z" fill="#333E63"/>
<path d="M75.9308 155.853C75.9308 161.353 73.1308 164.103 67.5308 164.103C61.9308 164.103 59.1308 161.353 59.1308 155.853V143.613C59.1308 143.153 59.3008 142.753 59.6408 142.413C59.9808 142.073 60.3808 141.903 60.8408 141.903H62.5808C63.0408 141.903 63.4408 142.073 63.7808 142.413C64.1208 142.753 64.2908 143.153 64.2908 143.613V156.213C64.2908 157.573 64.5508 158.543 65.0708 159.123C65.5908 159.703 66.4308 159.993 67.5908 159.993C68.7508 159.993 69.5908 159.703 70.1108 159.123C70.6308 158.543 70.8908 157.573 70.8908 156.213V143.613C70.8908 143.153 71.0608 142.753 71.4008 142.413C71.7408 142.073 72.1408 141.903 72.6008 141.903H74.2208C74.6808 141.903 75.0808 142.073 75.4208 142.413C75.7608 142.753 75.9308 143.153 75.9308 143.613V155.853ZM84.5523 154.143V157.863C84.5523 158.543 84.8523 159.153 85.4523 159.693C86.0523 160.233 86.7523 160.503 87.5523 160.503C88.4723 160.503 89.2023 160.133 89.7423 159.393C90.2823 158.653 90.5523 157.523 90.5523 156.003C90.5523 153.003 89.5523 151.503 87.5523 151.503C86.7523 151.503 86.0523 151.773 85.4523 152.313C84.8523 152.853 84.5523 153.463 84.5523 154.143ZM81.4923 163.803C81.0323 163.803 80.6323 163.633 80.2923 163.293C79.9723 162.953 79.8123 162.553 79.8123 162.093V143.013C79.8123 142.553 79.9723 142.153 80.2923 141.813C80.6323 141.473 81.0323 141.303 81.4923 141.303H82.9623C83.4223 141.303 83.8123 141.473 84.1323 141.813C84.4723 142.153 84.6423 142.553 84.6423 143.013V149.733C84.6423 149.753 84.6523 149.763 84.6723 149.763C84.6923 149.763 84.7123 149.753 84.7323 149.733C86.0723 148.513 87.5623 147.903 89.2023 147.903C91.0623 147.903 92.5423 148.603 93.6423 150.003C94.7423 151.403 95.2923 153.403 95.2923 156.003C95.2923 158.543 94.7223 160.533 93.5823 161.973C92.4423 163.393 90.9823 164.103 89.2023 164.103C87.3023 164.103 85.7223 163.363 84.4623 161.883L84.4023 161.823C84.3823 161.823 84.3723 161.833 84.3723 161.853V162.093C84.3523 162.573 84.1723 162.983 83.8323 163.323C83.5123 163.643 83.1123 163.803 82.6323 163.803H81.4923ZM105.097 151.173C104.197 151.173 103.517 151.413 103.057 151.893C102.597 152.353 102.307 153.153 102.187 154.293C102.187 154.453 102.257 154.533 102.397 154.533H107.467C107.647 154.533 107.737 154.443 107.737 154.263C107.657 152.203 106.777 151.173 105.097 151.173ZM105.847 164.103C103.127 164.103 101.027 163.413 99.5466 162.033C98.0866 160.653 97.3566 158.643 97.3566 156.003C97.3566 153.383 98.0066 151.383 99.3066 150.003C100.627 148.603 102.527 147.903 105.007 147.903C109.767 147.903 112.187 150.503 112.267 155.703C112.267 156.183 112.077 156.593 111.697 156.933C111.337 157.253 110.917 157.413 110.437 157.413H102.427C102.227 157.413 102.147 157.503 102.187 157.683C102.347 158.783 102.767 159.573 103.447 160.053C104.147 160.513 105.187 160.743 106.567 160.743C107.467 160.743 108.437 160.613 109.477 160.353C109.897 160.253 110.267 160.333 110.587 160.593C110.927 160.853 111.097 161.193 111.097 161.613V161.673C111.097 162.173 110.937 162.633 110.617 163.053C110.317 163.453 109.927 163.693 109.447 163.773C108.287 163.993 107.087 164.103 105.847 164.103ZM116.78 163.803C116.32 163.803 115.92 163.633 115.58 163.293C115.26 162.953 115.1 162.553 115.1 162.093V149.913C115.1 149.453 115.26 149.053 115.58 148.713C115.92 148.373 116.32 148.203 116.78 148.203H118.01C118.49 148.203 118.89 148.373 119.21 148.713C119.55 149.033 119.73 149.433 119.75 149.913L119.78 150.153C119.78 150.173 119.79 150.183 119.81 150.183L119.87 150.123C121.17 148.643 122.73 147.903 124.55 147.903C126.37 147.903 127.68 148.423 128.48 149.463C129.28 150.483 129.68 152.233 129.68 154.713V162.093C129.68 162.553 129.51 162.953 129.17 163.293C128.85 163.633 128.46 163.803 128 163.803H126.68C126.22 163.803 125.82 163.633 125.48 163.293C125.14 162.953 124.97 162.553 124.97 162.093V154.863C124.97 153.663 124.81 152.843 124.49 152.403C124.17 151.943 123.59 151.713 122.75 151.713C122.05 151.713 121.4 152.003 120.8 152.583C120.22 153.143 119.93 153.753 119.93 154.413V162.093C119.93 162.553 119.76 162.953 119.42 163.293C119.1 163.633 118.71 163.803 118.25 163.803H116.78ZM134.859 162.153L132.069 149.853C131.989 149.433 132.079 149.053 132.339 148.713C132.599 148.373 132.949 148.203 133.389 148.203H134.889C135.389 148.203 135.819 148.363 136.179 148.683C136.539 149.003 136.759 149.403 136.839 149.883L138.339 159.873C138.339 159.893 138.349 159.903 138.369 159.903C138.389 159.903 138.399 159.893 138.399 159.873L140.049 149.883C140.129 149.403 140.349 149.003 140.709 148.683C141.069 148.363 141.499 148.203 141.999 148.203H144.219C144.719 148.203 145.149 148.363 145.509 148.683C145.889 149.003 146.119 149.403 146.199 149.883L147.819 159.873C147.819 159.893 147.829 159.903 147.849 159.903C147.869 159.903 147.879 159.893 147.879 159.873L149.379 149.883C149.459 149.403 149.679 149.003 150.039 148.683C150.399 148.363 150.829 148.203 151.329 148.203H152.709C153.149 148.203 153.499 148.373 153.759 148.713C154.039 149.053 154.129 149.433 154.029 149.853L151.239 162.153C151.139 162.633 150.889 163.033 150.489 163.353C150.089 163.653 149.639 163.803 149.139 163.803H146.799C146.299 163.803 145.859 163.643 145.479 163.323C145.119 163.003 144.889 162.603 144.789 162.123L143.079 152.433C143.079 152.413 143.069 152.403 143.049 152.403C143.029 152.403 143.019 152.413 143.019 152.433L141.309 162.123C141.229 162.603 140.999 163.003 140.619 163.323C140.239 163.643 139.799 163.803 139.299 163.803H136.959C136.459 163.803 136.009 163.653 135.609 163.353C135.209 163.033 134.959 162.633 134.859 162.153ZM163.806 156.663C161.366 156.663 160.146 157.413 160.146 158.913C160.146 159.453 160.306 159.883 160.626 160.203C160.946 160.503 161.376 160.653 161.916 160.653C162.876 160.653 163.656 160.353 164.256 159.753C164.856 159.133 165.156 158.313 165.156 157.293V156.933C165.156 156.753 165.066 156.663 164.886 156.663H163.806ZM160.446 164.103C159.066 164.103 157.926 163.663 157.026 162.783C156.146 161.883 155.706 160.723 155.706 159.303C155.706 155.663 158.406 153.843 163.806 153.843H164.886C165.066 153.843 165.156 153.763 165.156 153.603V153.453C165.156 152.693 164.956 152.143 164.556 151.803C164.176 151.463 163.526 151.293 162.606 151.293C161.386 151.293 159.926 151.483 158.226 151.863C157.806 151.943 157.426 151.853 157.086 151.593C156.766 151.333 156.606 150.993 156.606 150.573V150.513C156.606 150.013 156.756 149.563 157.056 149.163C157.376 148.743 157.776 148.493 158.256 148.413C160.016 148.073 161.536 147.903 162.816 147.903C165.436 147.903 167.286 148.373 168.366 149.313C169.466 150.253 170.016 151.813 170.016 153.993V162.093C170.016 162.553 169.846 162.953 169.506 163.293C169.166 163.633 168.766 163.803 168.306 163.803H167.196C166.716 163.803 166.306 163.643 165.966 163.323C165.626 162.983 165.446 162.573 165.426 162.093V161.763C165.426 161.743 165.416 161.733 165.396 161.733C165.356 161.733 165.336 161.743 165.336 161.763C164.076 163.323 162.446 164.103 160.446 164.103Z" fill="#333E63"/>
<defs>
<filter id="filter0_i_1:253" x="120.744" y="0" width="69.1598" height="121.491" filterUnits="userSpaceOnUse" color-interpolation-filters="sRGB">
<feFlood flood-opacity="0" result="BackgroundImageFix"/>
<feBlend mode="normal" in="SourceGraphic" in2="BackgroundImageFix" result="shape"/>
<feColorMatrix in="SourceAlpha" type="matrix" values="0 0 0 0 0 0 0 0 0 0 0 0 0 0 0 0 0 0 127 0" result="hardAlpha"/>
<feOffset dx="1"/>
<feGaussianBlur stdDeviation="3.5"/>
<feComposite in2="hardAlpha" operator="arithmetic" k2="-1" k3="1"/>
<feColorMatrix type="matrix" values="0 0 0 0 0.976471 0 0 0 0 0.231373 0 0 0 0 0.231373 0 0 0 0.5 0"/>
<feBlend mode="normal" in2="shape" result="effect1_innerShadow_1:253"/>
</filter>
<linearGradient id="paint0_linear_1:253" x1="121" y1="137.303" x2="178.5" y2="60.8027" gradientUnits="userSpaceOnUse">
<stop stop-color="#ED4D5B"/>
<stop offset="1" stop-color="#F9923B"/>
</linearGradient>
</defs>
</svg>
