<svg width="21" height="22" viewBox="0 0 21 22" fill="none" xmlns="http://www.w3.org/2000/svg">
<path d="M4.6389 1C4.6389 0.447715 4.19119 0 3.6389 0C3.08662 0 2.6389 0.447715 2.6389 1H4.6389ZM2.6389 3.16216C2.6389 3.71445 3.08662 4.16216 3.6389 4.16216C4.19119 4.16216 4.6389 3.71445 4.6389 3.16216H2.6389ZM8.86114 1C8.86114 0.447715 8.41343 0 7.86114 0C7.30886 0 6.86114 0.447715 6.86114 1H8.86114ZM6.86114 3.16216C6.86114 3.71445 7.30886 4.16216 7.86114 4.16216C8.41343 4.16216 8.86114 3.71445 8.86114 3.16216H6.86114ZM19 8.56757C19 9.5306 18.2439 10.2703 17.3611 10.2703V12.2703C19.3932 12.2703 21 10.5899 21 8.56757H19ZM17.3611 10.2703C16.4783 10.2703 15.7222 9.5306 15.7222 8.56757H13.7222C13.7222 10.5899 15.329 12.2703 17.3611 12.2703V10.2703ZM15.7222 8.56757C15.7222 7.60454 16.4783 6.86486 17.3611 6.86486V4.86486C15.329 4.86486 13.7222 6.54528 13.7222 8.56757H15.7222ZM17.3611 6.86486C18.2439 6.86486 19 7.60454 19 8.56757H21C21 6.54528 19.3932 4.86486 17.3611 4.86486V6.86486ZM16.3611 15.0541C16.3611 17.8083 14.1872 20 11.5555 20V22C15.3365 22 18.3611 18.8675 18.3611 15.0541H16.3611ZM11.5555 20C8.92385 20 6.74994 17.8083 6.74994 15.0541H4.74994C4.74994 18.8675 7.77451 22 11.5555 22V20ZM9.50004 10.1892C9.50004 12.3463 7.79865 14.0541 5.74994 14.0541V16.0541C8.94795 16.0541 11.5 13.4056 11.5 10.1892H9.50004ZM5.74994 14.0541C3.70127 14.0541 2 12.3464 2 10.1892H0C0 13.4056 2.55188 16.0541 5.74994 16.0541V14.0541ZM18.3611 15.0541V11.2703H16.3611V15.0541H18.3611ZM2 10.1892V3.08108H0V10.1892H2ZM2 3.08108H3.6389V1.08108H2V3.08108ZM4.6389 2.08108V1H2.6389V2.08108H4.6389ZM2.6389 2.08108V3.16216H4.6389V2.08108H2.6389ZM11.5 10.1892V3.08108H9.50004V10.1892H11.5ZM9.50004 1.08108H7.86114V3.08108H9.50004V1.08108ZM8.86114 2.08108V1H6.86114V2.08108H8.86114ZM6.86114 2.08108V3.16216H8.86114V2.08108H6.86114ZM11.5 3.08108C11.5 1.97651 10.6046 1.08108 9.50004 1.08108V3.08108V3.08108H11.5ZM2 3.08108L2 3.08108V1.08108C0.89543 1.08108 0 1.97651 0 3.08108H2Z" fill="#384571"/>
</svg>
